<?xml version="1.0" standalone="no"?>
<!DOCTYPE svg PUBLIC "-//W3C//DTD SVG 20010904//EN"
 "http://www.w3.org/TR/2001/REC-SVG-20010904/DTD/svg10.dtd">
<svg version="1.0" xmlns="http://www.w3.org/2000/svg"
 width="400.000000pt" height="400.000000pt" viewBox="0 0 400.000000 400.000000"
 preserveAspectRatio="xMidYMid meet">

<g transform="translate(0.000000,400.000000) scale(0.100000,-0.100000)"
fill="#000000" stroke="none">
<path d="M1269 2933 c-399 -401 -735 -742 -747 -758 -33 -50 -55 -141 -49
-206 11 -126 17 -133 500 -617 243 -244 453 -450 467 -457 42 -22 96 -28 137
-15 30 10 151 125 590 563 l553 552 -67 67 c-37 37 -82 75 -99 83 -37 17 -100
20 -141 5 -15 -6 -201 -184 -413 -395 -212 -211 -398 -389 -413 -395 -36 -13
-88 -13 -124 0 -37 14 -551 526 -569 567 -17 40 -18 110 0 142 7 13 292 303
633 645 668 669 652 651 638 743 -6 38 -17 56 -82 124 -42 43 -78 79 -82 79
-3 0 -333 -327 -732 -727z"/>
<path d="M2403 3099 c-30 -14 -212 -192 -579 -562 l-535 -540 68 -69 c37 -38
80 -76 95 -84 32 -17 111 -18 141 -3 12 6 195 184 407 395 212 210 398 388
413 393 52 20 110 13 158 -18 24 -15 155 -140 290 -277 223 -226 247 -253 257
-296 7 -26 10 -53 8 -60 -2 -7 -7 -26 -11 -43 -5 -22 -164 -188 -635 -660
-559 -560 -630 -635 -640 -672 -18 -71 0 -113 85 -201 l74 -77 735 734 c531
532 743 749 762 785 39 72 45 186 14 271 -21 57 -47 84 -479 519 -260 261
-470 464 -488 472 -46 20 -91 17 -140 -7z"/>
</g>
</svg>
